{
  "asset": {
    "version": "2.0",
    "generator": "THREE.GLTFExporter"
  },
  "scenes": [
    {
      "nodes": [
        0
      ]
    }
  ],
  "scene": 0,
  "nodes": [
    {
      "children": [
        7
      ],
      "matrix": [
        0.01,
        0,
        0,
        0,
        0,
        0.01,
        0,
        0,
        0,
        0,
        0.01,
        0,
        0,
        0,
        0,
        1
      ]
    },
    {
      "matrix": [
        1,
        0,
        0,
        0,
        0,
        1,
        0,
        0,
        0,
        0,
        1,
        0,
        0,
        0,
        -40,
        1
      ],
      "name": "Ellipse 2",
      "mesh": 0
    },
    {
      "matrix": [
        0.1,
        0,
        0,
        0,
        0,
        0.1,
        0,
        0,
        0,
        0,
        0.1,
        0,
        0,
        0,
        0,
        1
      ],
      "name": "Ellipse",
      "mesh": 1
    },
    {
      "matrix": [
        2.221812613721434e-16,
        -0.9999999526460022,
        -0.0003077466391446794,
        0,
        4.4402085533975737e-16,
        0.0003077466391445129,
        -0.9999999526460022,
        0,
        1.0000000000000002,
        4.4402085533975737e-16,
        2.221812613721434e-16,
        0,
        0.007693665978618432,
        -0.09281590048044208,
        -3.211796063252361,
        1
      ],
      "name": "Point Light",
      "extensions": {
        "KHR_lights_punctual": {
          "light": 0
        }
      }
    },
    {
      "matrix": [
        -2.220446049250313e-16,
        0,
        1.0000000000000002,
        0,
        -0.999999952646002,
        0.0003077466391453454,
        0,
        0,
        -0.0003077466391455119,
        -0.999999952646002,
        -2.220446049250313e-16,
        0,
        -5,
        0,
        0,
        1
      ],
      "name": "Sphere",
      "mesh": 2,
      "children": [
        3
      ]
    },
    {
      "matrix": [
        1,
        0,
        0,
        0,
        0,
        1,
        -6.123233995736765e-17,
        0,
        0,
        6.123233995736765e-17,
        1,
        0,
        0,
        1.0438717520503402e-14,
        45.25902960118623,
        1
      ],
      "camera": 0
    },
    {
      "matrix": [
        1,
        0,
        0,
        0,
        0,
        1,
        0,
        0,
        0,
        0,
        1,
        0,
        0,
        1,
        0,
        1
      ],
      "name": "Default Ambient Light"
    },
    {
      "name": "Scene 1",
      "children": [
        1,
        2,
        4,
        5,
        6
      ]
    }
  ],
  "bufferViews": [
    {
      "buffer": 0,
      "byteOffset": 0,
      "byteLength": 768,
      "target": 34962,
      "byteStride": 12
    },
    {
      "buffer": 0,
      "byteOffset": 768,
      "byteLength": 768,
      "target": 34962,
      "byteStride": 12
    },
    {
      "buffer": 0,
      "byteOffset": 1536,
      "byteLength": 512,
      "target": 34962,
      "byteStride": 8
    },
    {
      "buffer": 0,
      "byteOffset": 2048,
      "byteLength": 744,
      "target": 34963
    },
    {
      "buffer": 0,
      "byteOffset": 2792,
      "byteLength": 24696,
      "target": 34962,
      "byteStride": 12
    },
    {
      "buffer": 0,
      "byteOffset": 27488,
      "byteLength": 24696,
      "target": 34962,
      "byteStride": 12
    },
    {
      "buffer": 0,
      "byteOffset": 52184,
      "byteLength": 16464,
      "target": 34962,
      "byteStride": 8
    },
    {
      "buffer": 0,
      "byteOffset": 68648,
      "byteLength": 23040,
      "target": 34963
    },
    {
      "buffer": 0,
      "byteOffset": 91688,
      "byteLength": 190464,
      "target": 34962,
      "byteStride": 12
    },
    {
      "buffer": 0,
      "byteOffset": 282152,
      "byteLength": 190464,
      "target": 34962,
      "byteStride": 12
    },
    {
      "buffer": 0,
      "byteOffset": 472616,
      "byteLength": 95232,
      "target": 34963
    }
  ],
  "buffers": [
    {
      "byteLength": 567848,
      "uri": "data:application/octet-stream;base64,"
    }
  ],
  "accessors": [
    {
      "bufferView": 0,
      "componentType": 5126,
      "count": 64,
      "max": [
        523.9439086914062,
        523.9439086914062,
        0
      ],
      "min": [
        -523.9439086914062,
        -523.9439086914062,
        0
      ],
      "type": "VEC3"
    },
    {
      "bufferView": 1,
      "componentType": 5126,
      "count": 64,
      "max": [
        0,
        0,
        1
      ],
      "min": [
        0,
        0,
        1
      ],
      "type": "VEC3"
    },
    {
      "bufferView": 2,
      "componentType": 5126,
      "count": 64,
      "max": [
        1,
        1
      ],
      "min": [
        0,
        0
      ],
      "type": "VEC2"
    },
    {
      "bufferView": 3,
      "componentType": 5125,
      "count": 186,
      "max": [
        63
      ],
      "min": [
        0
      ],
      "type": "SCALAR"
    },
    {
      "bufferView": 4,
      "componentType": 5126,
      "count": 2058,
      "max": [
        50,
        50,
        0
      ],
      "min": [
        -50,
        -50,
        0
      ],
      "type": "VEC3"
    },
    {
      "bufferView": 5,
      "componentType": 5126,
      "count": 2058,
      "max": [
        1,
        0,
        0
      ],
      "min": [
        1,
        0,
        0
      ],
      "type": "VEC3"
    },
    {
      "bufferView": 6,
      "componentType": 5126,
      "count": 2058,
      "max": [
        1,
        1
      ],
      "min": [
        0,
        0
      ],
      "type": "VEC2"
    },
    {
      "bufferView": 7,
      "componentType": 5123,
      "count": 11520,
      "max": [
        2057
      ],
      "min": [
        0
      ],
      "type": "SCALAR"
    },
    {
      "bufferView": 8,
      "componentType": 5126,
      "count": 15872,
      "max": [
        4.851753234863281,
        4.984831809997559,
        4.851753234863281
      ],
      "min": [
        -4.851753234863281,
        -4.984831809997559,
        -4.851753234863281
      ],
      "type": "VEC3"
    },
    {
      "bufferView": 9,
      "componentType": 5126,
      "count": 15872,
      "max": [
        1,
        1,
        1
      ],
      "min": [
        -1,
        -1,
        -1
      ],
      "type": "VEC3"
    },
    {
      "bufferView": 10,
      "componentType": 5125,
      "count": 23808,
      "max": [
        15871
      ],
      "min": [
        0
      ],
      "type": "SCALAR"
    }
  ],
  "materials": [
    {
      "pbrMetallicRoughness": {
        "baseColorFactor": [
          0,
          0,
          0,
          1
        ],
        "metallicFactor": 0,
        "roughnessFactor": 0.99
      },
      "doubleSided": false
    },
    {
      "pbrMetallicRoughness": {
        "metallicFactor": 0,
        "roughnessFactor": 0.3
      },
      "doubleSided": false
    },
    {
      "pbrMetallicRoughness": {
        "metallicFactor": 0,
        "roughnessFactor": 0.995
      },
      "doubleSided": false
    }
  ],
  "meshes": [
    {
      "primitives": [
        {
          "mode": 4,
          "attributes": {
            "POSITION": 0,
            "NORMAL": 1,
            "TEXCOORD_0": 2
          },
          "extras": {
            "shape": {
              "points": [
                -523.9439048652126,
                0,
                -523.9439048652126,
                -289.36622840771895,
                -523.9439048652126,
                289.36622840771895,
                0,
                0,
                523.9439048652126,
                -289.36622840771895,
                523.9439048652126,
                289.36622840771895,
                523.9439048652126,
                0,
                523.9439048652126,
                0,
                523.9439048652126,
                289.36622840771895,
                523.9439048652126,
                -289.36622840771895,
                0,
                0,
                -523.9439048652126,
                289.36622840771895,
                -523.9439048652126,
                -289.36622840771895,
                -523.9439048652126,
                0
              ],
              "shapeHoles": [],
              "isClosed": true,
              "roundness": 0
            },
            "parameters": {
              "width": 1047.8878097304253,
              "depth": 0,
              "spikes": 64,
              "angle": 360,
              "innerRadius": 0,
              "extrudeBevelSize": 0,
              "extrudeBevelSegments": 1,
              "height": 1047.8878097304253,
              "type": "EllipseGeometry"
            },
            "type": "EllipseGeometry"
          },
          "indices": 3,
          "material": 0
        }
      ]
    },
    {
      "primitives": [
        {
          "mode": 4,
          "attributes": {
            "POSITION": 4,
            "NORMAL": 5,
            "TEXCOORD_0": 6
          },
          "extras": {
            "path": {
              "points": [
                {
                  "id": "c41000a6-4d4c-409d-8d7a-a67dfc2bf21e",
                  "fi": 0,
                  "data": {
                    "position": [
                      -50,
                      0,
                      0
                    ],
                    "roundness": 0,
                    "areControlsDirectionsMirrored": true,
                    "controlPrevious": {
                      "position": [
                        -50,
                        -27.614237489999997,
                        0
                      ]
                    },
                    "controlNext": {
                      "position": [
                        -50,
                        27.614237489999997,
                        0
                      ]
                    }
                  }
                },
                {
                  "id": "08a603e8-484f-4142-87da-7fe91ea49ea4",
                  "fi": 1,
                  "data": {
                    "position": [
                      0,
                      50,
                      0
                    ],
                    "roundness": 0,
                    "areControlsDirectionsMirrored": true,
                    "controlPrevious": {
                      "position": [
                        -27.614237489999997,
                        50,
                        0
                      ]
                    },
                    "controlNext": {
                      "position": [
                        27.614237489999997,
                        50,
                        0
                      ]
                    }
                  }
                },
                {
                  "id": "0b895f44-4600-454b-8bb3-8ec929b83a97",
                  "fi": 2,
                  "data": {
                    "position": [
                      50,
                      0,
                      0
                    ],
                    "roundness": 0,
                    "areControlsDirectionsMirrored": true,
                    "controlPrevious": {
                      "position": [
                        50,
                        27.614237489999997,
                        0
                      ]
                    },
                    "controlNext": {
                      "position": [
                        50,
                        -27.614237489999997,
                        0
                      ]
                    }
                  }
                },
                {
                  "id": "86ba3f11-9a22-4fbd-8286-da8df3d4bc74",
                  "fi": 3,
                  "data": {
                    "position": [
                      0,
                      -50,
                      0
                    ],
                    "roundness": 0,
                    "areControlsDirectionsMirrored": true,
                    "controlPrevious": {
                      "position": [
                        27.614237489999997,
                        -50,
                        0
                      ]
                    },
                    "controlNext": {
                      "position": [
                        -27.614237489999997,
                        -50,
                        0
                      ]
                    }
                  }
                }
              ],
              "lastInsertionPlane": null,
              "subdivisions": 12,
              "isClosed": true,
              "roundness": 0
            },
            "parameters": {
              "width": 100,
              "height": 100,
              "depth": 0,
              "subdivisions": 12,
              "roundness": 0,
              "extrudeBevelSize": 0,
              "extrudeBevelSegments": 1,
              "spikes": 64,
              "angle": 360,
              "innerRadius": 0,
              "type": "PathGeometry",
              "path": {
                "points": [
                  {
                    "id": "c41000a6-4d4c-409d-8d7a-a67dfc2bf21e",
                    "fi": 0,
                    "data": {
                      "position": [
                        -50,
                        0,
                        0
                      ],
                      "roundness": 0,
                      "areControlsDirectionsMirrored": true,
                      "controlPrevious": {
                        "position": [
                          -50,
                          -27.614237489999997,
                          0
                        ]
                      },
                      "controlNext": {
                        "position": [
                          -50,
                          27.614237489999997,
                          0
                        ]
                      }
                    }
                  },
                  {
                    "id": "08a603e8-484f-4142-87da-7fe91ea49ea4",
                    "fi": 1,
                    "data": {
                      "position": [
                        0,
                        50,
                        0
                      ],
                      "roundness": 0,
                      "areControlsDirectionsMirrored": true,
                      "controlPrevious": {
                        "position": [
                          -27.614237489999997,
                          50,
                          0
                        ]
                      },
                      "controlNext": {
                        "position": [
                          27.614237489999997,
                          50,
                          0
                        ]
                      }
                    }
                  },
                  {
                    "id": "0b895f44-4600-454b-8bb3-8ec929b83a97",
                    "fi": 2,
                    "data": {
                      "position": [
                        50,
                        0,
                        0
                      ],
                      "roundness": 0,
                      "areControlsDirectionsMirrored": true,
                      "controlPrevious": {
                        "position": [
                          50,
                          27.614237489999997,
                          0
                        ]
                      },
                      "controlNext": {
                        "position": [
                          50,
                          -27.614237489999997,
                          0
                        ]
                      }
                    }
                  },
                  {
                    "id": "86ba3f11-9a22-4fbd-8286-da8df3d4bc74",
                    "fi": 3,
                    "data": {
                      "position": [
                        0,
                        -50,
                        0
                      ],
                      "roundness": 0,
                      "areControlsDirectionsMirrored": true,
                      "controlPrevious": {
                        "position": [
                          27.614237489999997,
                          -50,
                          0
                        ]
                      },
                      "controlNext": {
                        "position": [
                          -27.614237489999997,
                          -50,
                          0
                        ]
                      }
                    }
                  }
                ],
                "lastInsertionPlane": null,
                "subdivisions": 12,
                "isClosed": true,
                "roundness": 0
              },
              "extrusion": {
                "shape": {
                  "type": "Ellipse",
                  "width": 50,
                  "height": 50,
                  "spikes": 16,
                  "angle": 360,
                  "innerRadius": 32
                },
                "depth": 1,
                "offset": 0,
                "bevel": 50,
                "bevelSides": 6,
                "angle": 0,
                "twist": 0,
                "startScale": 0,
                "endScale": 0,
                "capType": "flat"
              }
            },
            "shapeData": {
              "points": [
                -25,
                0,
                -25,
                -13.807118744999999,
                -25,
                13.807118744999999,
                0,
                0,
                25,
                -13.807118744999999,
                25,
                13.807118744999999,
                25,
                0,
                25,
                0,
                25,
                13.807118744999999,
                25,
                -13.807118744999999,
                0,
                0,
                -25,
                13.807118744999999,
                -25,
                -13.807118744999999,
                -25,
                0
              ],
              "shapeHoles": [],
              "isClosed": true,
              "roundness": 0
            },
            "type": "PathGeometry"
          },
          "indices": 7,
          "material": 1
        }
      ]
    },
    {
      "primitives": [
        {
          "mode": 4,
          "attributes": {
            "POSITION": 8,
            "NORMAL": 9
          },
          "extras": {
            "type": "SubdivGeometry",
            "parameters": {
              "width": 9.703506469726562,
              "height": 9.969663619995117,
              "depth": 9.703506469726562
            }
          },
          "indices": 10,
          "material": 2
        }
      ]
    }
  ],
  "extensions": {
    "KHR_lights_punctual": {
      "lights": [
        {
          "name": "Point Light",
          "color": [
            1,
            0.6122521424009854,
            0.044956015765973634
          ],
          "intensity": 0,
          "type": "point",
          "range": 6932
        }
      ]
    }
  },
  "cameras": [
    {
      "type": "orthographic",
      "orthographic": {
        "xmag": 0.5005210308325079,
        "ymag": 0.45851428713532727,
        "zfar": 100000,
        "znear": 0
      }
    }
  ],
  "extensionsUsed": [
    "KHR_lights_punctual"
  ]
}